<?xml version="1.0" encoding="UTF-8"?>
<svg id="_레이어_2" data-name="레이어 2" xmlns="http://www.w3.org/2000/svg" viewBox="0 0 21.57 5.47">
  <defs>
    <style>
      .cls-1 {
        fill: none;
        stroke: #444e89;
        stroke-miterlimit: 10;
        stroke-width: .5px;
      }
    </style>
  </defs>
  <g id="_레이어_1-2" data-name="레이어 1">
    <path class="cls-1" d="M4.08,5.22c-.32,0-.62-.18-.76-.49L1.82,1.42c-.19-.42,0-.91.41-1.1.42-.19.91,0,1.1.41l1.5,3.31c.19.42,0,.91-.41,1.1-.11.05-.23.07-.34.07Z"/>
    <circle class="cls-1" cx="1.08" cy="4.39" r=".83"/>
    <path class="cls-1" d="M7.85,5.22c.32,0,.62-.18.76-.49l.78-1.73.78,1.73c.14.31.44.49.76.49.11,0,.23-.02.34-.07.42-.19.6-.68.41-1.1l-1.5-3.31c-.14-.32-.47-.5-.8-.48-.33-.02-.65.16-.8.48l-.82,1.82-.82-1.82c-.19-.42-.68-.6-1.1-.41-.42.19-.6.68-.41,1.1l1.5,3.31c.14.31.44.49.76.49h.16Z"/>
    <circle class="cls-1" cx="12.51" cy="1.08" r=".83"/>
    <path class="cls-1" d="M15.67.25c-.32,0-.62.18-.76.49l-1.5,3.31c-.19.42,0,.91.41,1.1.42.19.91,0,1.1-.41l.82-1.82.82,1.82c.14.32.47.5.8.48.33.02.65-.16.8-.48l1.5-3.31c.19-.42,0-.91-.41-1.1-.11-.05-.23-.07-.34-.07-.32,0-.62.18-.76.49l-.78,1.73-.78-1.73c-.14-.31-.44-.49-.76-.49h-.16Z"/>
    <circle class="cls-1" cx="20.49" cy="4.39" r=".83"/>
  </g>
</svg>