<?xml version="1.0" encoding="UTF-8"?>
<svg id="_레이어_2" data-name="레이어 2" xmlns="http://www.w3.org/2000/svg" xmlns:xlink="http://www.w3.org/1999/xlink" viewBox="0 0 239.91 239.91">
  <defs>
    <style>
      .cls-1 {
        fill: #444e89;
      }

      .cls-1, .cls-2 {
        stroke-width: 0px;
      }

      .cls-2 {
        fill: url(#_무제_그라디언트_50);
      }
    </style>
    <linearGradient id="_무제_그라디언트_50" data-name="무제 그라디언트 50" x1="-7.9" y1="-8.52" x2="248.1" y2="248.71" gradientUnits="userSpaceOnUse">
      <stop offset="0" stop-color="#aafaff"/>
      <stop offset=".66" stop-color="#e5dcfd"/>
      <stop offset="1" stop-color="#ffd0fd"/>
    </linearGradient>
  </defs>
  <g id="_레이어_1-2" data-name="레이어 1">
    <rect class="cls-2" width="239.91" height="239.91" rx="24.89" ry="24.89"/>
    <g id="_레이어_1-2" data-name=" 레이어 1-2">
      <path class="cls-1" d="M169.7,210.5c-14.3,0-26.82-8.08-32.7-21.1l-49.61-109.49c-8.08-17.85-.18-39.08,17.63-47.32,17.87-8.09,39.15-.18,47.38,17.61l49.65,109.57c8.08,17.87.18,39.1-17.63,47.3-2.05.94-4.2,1.65-6.45,2.16v.94l-8.27.32ZM166.11,193.63h3.59c2.79,0,5.57-.55,7.84-1.58,9.53-4.39,13.8-15.83,9.45-25.43l-49.63-109.54c-4.43-9.53-15.82-13.73-25.46-9.45-9.52,4.43-13.8,15.85-9.45,25.46l49.63,109.49c2.67,5.91,7.87,9.92,14.04,11.05Z"/>
      <path class="cls-1" d="M70.44,210.5c-19.71,0-35.74-16.03-35.74-35.74s16.03-35.74,35.74-35.74,35.74,16.03,35.74,35.74-16.03,35.74-35.74,35.74ZM70.44,155.57c-10.58,0-19.19,8.59-19.19,19.19s8.61,19.19,19.19,19.19,19.19-8.59,19.19-19.19-8.61-19.19-19.19-19.19Z"/>
    </g>
  </g>
</svg>