<?xml version="1.0" encoding="UTF-8"?>
<svg id="_레이어_2" data-name="레이어 2" xmlns="http://www.w3.org/2000/svg" viewBox="0 0 1920 1080">
  <defs>
    <style>
      .cls-1 {
        fill: #f2ddec;
        stroke-width: 0px;
      }
    </style>
  </defs>
  <g id="_레이어_1-2" data-name="레이어 1">
    <g>
      <path class="cls-1" d="M905.14,448.71c-4.56-10.35-15.49-16.58-26.85-16.06-13.14-.59-23.42,5.67-28.33,16.2l-50.41,111.85-50.46-112.01c-4.66-10.3-14.55-16.29-25.11-16.29-3.95,0-8.02.82-11.92,2.59-14.18,6.42-20.2,22.69-13.71,37.05l72.2,159.36c4.3,9.55,13.12,15.66,23.35,16.46l9.99-.42c11.22,0,21.02-6.3,25.6-16.46l48.55-107.68,48.53,107.68c4.58,10.16,14.41,16.46,25.63,16.46,2.92,0,7.27-.38,11.4-2.26,14.2-6.44,20.24-22.71,13.75-37.05l-72.23-159.41Z"/>
      <path class="cls-1" d="M1028.27,432.21c-15.38,0-27.91,12.53-27.91,27.93s12.53,27.93,27.91,27.93,27.93-12.53,27.93-27.93-12.51-27.93-27.93-27.93Z"/>
      <path class="cls-1" d="M1347.75,434.96c-4.09-1.88-8.42-2.28-11.29-2.28-11.19,0-21.02,6.32-25.63,16.51l-48.53,107.64-48.53-107.64c-4.61-10.18-14.44-16.51-25.63-16.51h-12.93c-8.98,1.65-16.55,7.48-20.41,16.04l-72.23,159.41c-6.35,13.97-.09,30.61,13.87,37.1,13.87,6.21,30.52.05,36.96-13.87l50.41-111.94,50.41,112.03c4.56,10.3,15.19,16.69,26.85,15.99,13.64.8,23.42-5.64,28.36-16.18l72.18-159.22c6.3-13.99.09-30.64-13.87-37.08Z"/>
      <path class="cls-1" d="M477.91,591.57c-15.4,0-27.93,12.51-27.93,27.93s12.53,27.93,27.93,27.93,27.93-12.51,27.93-27.93-12.53-27.93-27.93-27.93Z"/>
      <path class="cls-1" d="M0,0v1080h1920V0H0ZM477.91,671.51c-28.68,0-52.01-23.32-52.01-52.01s23.32-52.01,52.01-52.01,52.01,23.32,52.01,52.01-23.32,52.01-52.01,52.01ZM643.79,666.52c-2.94,1.36-6.09,2.45-9.38,3.2l-12.04,1.79c-20.78,0-39.03-11.76-47.56-30.61l-72.23-159.43c-11.76-25.98-.26-56.88,25.65-68.87,26.03-11.78,56.97-.26,68.96,25.63l72.25,159.46c11.76,26,.26,56.9-25.65,68.84ZM973.54,667.09c-6.35,2.92-13.73,4.42-21.33,4.42-20.78,0-39.03-11.76-47.56-30.61l-26.59-59.01-26.59,58.97c-6.72,14.91-20.01,25.58-35.53,29.25l-19.75,1.93c-20.48,0-39.15-12.04-47.56-30.71l-72.2-159.36c-11.85-26.22-.31-57.13,25.72-68.89,26.12-11.9,57.09-.33,68.91,25.72l28.5,63.29,28.52-63.27c9.24-19.7,29.01-31.44,50.22-30.19,19.96-1.39,40.35,10.89,48.83,30.31l72.16,159.22c11.87,26.19.31,57.13-25.75,68.94ZM976.29,460.14c0-28.68,23.32-52.01,51.98-52.01s52.01,23.32,52.01,52.01-23.32,52.01-52.01,52.01-51.98-23.32-51.98-52.01ZM1261.09,671.51c-20.08.89-40.25-10.86-48.81-30.28l-28.45-63.2-28.54,63.29c-8.79,19.09-27.79,30.38-47.54,30.38-7.15,0-14.39-1.46-21.3-4.61-26.05-12.09-37.52-42.98-25.77-68.94l72.23-159.36c8.51-18.9,26.76-30.66,47.54-30.66l12.04.63c19,1.5,35.31,12.93,43.21,30.54l26.62,58.97,26.62-58.99c8.51-18.93,26.76-30.68,47.54-30.68,7.57,0,14.95,1.55,21.35,4.47,25.96,12.01,37.43,42.89,25.72,68.87l-72.23,159.43c-9.26,19.66-29.3,30.89-50.22,30.14ZM1412.55,671.51c-28.68,0-52.01-23.32-52.01-52.01s23.32-52.01,52.01-52.01,52.01,23.32,52.01,52.01-23.32,52.01-52.01,52.01Z"/>
      <path class="cls-1" d="M575.3,448.24c-6.4-13.85-23.11-19.99-37.05-13.75-13.87,6.44-20.08,23.07-13.75,37.05l72.23,159.39c3.88,8.56,11.45,14.39,20.41,16.04h5.24c2.92,0,7.24-.38,11.31-2.26,13.97-6.44,20.17-23.09,13.85-37.05l-72.23-159.41Z"/>
      <circle class="cls-1" cx="1412.55" cy="619.5" r="27.93" transform="translate(-129.55 587.72) rotate(-22.5)"/>
    </g>
  </g>
</svg>