<?xml version="1.0" encoding="UTF-8"?>
<svg id="_레이어_2" data-name="레이어 2" xmlns="http://www.w3.org/2000/svg" viewBox="0 0 256 256">
  <defs>
    <style>
      .cls-1 {
        fill: #386bc4;
      }

      .cls-1, .cls-2 {
        stroke-width: 0px;
      }

      .cls-2 {
        fill: #fff;
      }
    </style>
  </defs>
  <g id="_레이어_1-2" data-name="레이어 1">
    <rect class="cls-1" width="256" height="256" rx="12.96" ry="12.96"/>
    <path class="cls-2" d="M193.59,43.39h-102.28s-40.44,0-40.44,52.34c0,0-.03,51.46,41.19,51.46h66.85s11.31,0,11.31,9.3c0,0,2.01,12.57-8.54,12.57h-93.74s-5.47-.69-5.47,7.35v27.1s-.75,6.88,6.88,6.88h96.62s42.16,0,42.16-38.87v-19.69s0-39.06-39.06-39.06h-65.7s-12.13-.5-12.13-12.13c0,0-1.94-13.81,13.81-13.81h88.38s5.09.67,5.09-5.09v-33.03s.42-5.3-4.92-5.3Z"/>
  </g>
</svg>