<?xml version="1.0" encoding="UTF-8"?>
<svg id="_레이어_2" data-name="레이어 2" xmlns="http://www.w3.org/2000/svg" xmlns:xlink="http://www.w3.org/1999/xlink" viewBox="0 0 258.66 45.48">
  <defs>
    <style>
      .cls-1 {
        fill: #231815;
      }

      .cls-1, .cls-2 {
        stroke-width: 0px;
      }

      .cls-3 {
        clip-path: url(#clippath);
      }

      .cls-4 {
        fill: none;
        stroke: #231815;
        stroke-miterlimit: 10;
      }

      .cls-2 {
        fill: url(#_무제_그라디언트_959);
      }
    </style>
    <clipPath id="clippath">
      <path class="cls-4" d="M257.66,21.17c0,.38-.01.87-.03,1.48-.02.61-.06,1.17-.1,1.7h-15.18c0,1.02.16,1.91.47,2.68.31.77.75,1.42,1.32,1.94.57.52,1.25.92,2.05,1.19.79.27,1.68.41,2.65.41,1.12,0,2.32-.09,3.6-.26,1.28-.17,2.61-.46,3.99-.85v4.41c-.59.17-1.23.32-1.93.45s-1.41.26-2.14.36c-.73.11-1.46.19-2.2.24-.74.05-1.46.08-2.16.08-1.76,0-3.33-.25-4.73-.75-1.39-.5-2.58-1.24-3.54-2.22-.97-.98-1.71-2.19-2.23-3.62-.52-1.44-.77-3.11-.77-5s.26-3.59.77-5.12c.51-1.54,1.24-2.86,2.18-3.95.94-1.1,2.08-1.95,3.42-2.55,1.34-.6,2.84-.9,4.49-.9s3.08.25,4.34.76c1.26.51,2.31,1.22,3.16,2.12s1.49,1.99,1.93,3.25c.44,1.26.66,2.64.66,4.14ZM252.02,20.38c.01-.91-.1-1.7-.34-2.38-.24-.67-.57-1.23-.99-1.67-.42-.44-.9-.76-1.45-.98-.55-.21-1.15-.32-1.78-.32-1.39,0-2.54.47-3.43,1.4-.89.93-1.42,2.25-1.59,3.94h9.59Z"/>
    </clipPath>
    <linearGradient id="_무제_그라디언트_959" data-name="무제 그라디언트 959" x1=".5" y1="22.74" x2="258.16" y2="22.74" gradientUnits="userSpaceOnUse">
      <stop offset="0" stop-color="#b7ff71"/>
      <stop offset=".51" stop-color="#39f"/>
      <stop offset=".56" stop-color="#3b94fc"/>
      <stop offset=".64" stop-color="#5388f6"/>
      <stop offset=".74" stop-color="#7a75ed"/>
      <stop offset=".85" stop-color="#b159df"/>
      <stop offset=".98" stop-color="#f537ce"/>
      <stop offset="1" stop-color="#f3c"/>
    </linearGradient>
  </defs>
  <g id="_레이어_1-2" data-name="레이어 1">
    <g>
      <g class="cls-3">
        <g>
          <rect class="cls-2" x=".5" y=".5" width="257.66" height="44.48"/>
          <path class="cls-1" d="M257.66,1v43.48H1V1h256.66M258.66,0H0v45.48h258.66V0h0Z"/>
        </g>
      </g>
      <path class="cls-4" d="M257.66,21.17c0,.38-.01.87-.03,1.48-.02.61-.06,1.17-.1,1.7h-15.18c0,1.02.16,1.91.47,2.68.31.77.75,1.42,1.32,1.94.57.52,1.25.92,2.05,1.19.79.27,1.68.41,2.65.41,1.12,0,2.32-.09,3.6-.26,1.28-.17,2.61-.46,3.99-.85v4.41c-.59.17-1.23.32-1.93.45s-1.41.26-2.14.36c-.73.11-1.46.19-2.2.24-.74.05-1.46.08-2.16.08-1.76,0-3.33-.25-4.73-.75-1.39-.5-2.58-1.24-3.54-2.22-.97-.98-1.71-2.19-2.23-3.62-.52-1.44-.77-3.11-.77-5s.26-3.59.77-5.12c.51-1.54,1.24-2.86,2.18-3.95.94-1.1,2.08-1.95,3.42-2.55,1.34-.6,2.84-.9,4.49-.9s3.08.25,4.34.76c1.26.51,2.31,1.22,3.16,2.12s1.49,1.99,1.93,3.25c.44,1.26.66,2.64.66,4.14ZM252.02,20.38c.01-.91-.1-1.7-.34-2.38-.24-.67-.57-1.23-.99-1.67-.42-.44-.9-.76-1.45-.98-.55-.21-1.15-.32-1.78-.32-1.39,0-2.54.47-3.43,1.4-.89.93-1.42,2.25-1.59,3.94h9.59Z"/>
    </g>
  </g>
</svg>