<?xml version="1.0" encoding="UTF-8"?>
<svg id="_레이어_2" data-name="레이어 2" xmlns="http://www.w3.org/2000/svg" xmlns:xlink="http://www.w3.org/1999/xlink" viewBox="0 0 258.66 45.48">
  <defs>
    <style>
      .cls-1 {
        fill: #231815;
      }

      .cls-1, .cls-2 {
        stroke-width: 0px;
      }

      .cls-3 {
        clip-path: url(#clippath);
      }

      .cls-4 {
        fill: none;
        stroke: #231815;
        stroke-miterlimit: 10;
      }

      .cls-2 {
        fill: url(#_무제_그라디언트_959);
      }
    </style>
    <clipPath id="clippath">
      <path class="cls-4" d="M75.72,15.45c.42.53.72,1.09.9,1.67.17.58.26,1.18.26,1.78,0,1.29-.22,2.42-.67,3.41s-1.08,1.81-1.89,2.48c-.81.67-1.78,1.17-2.91,1.51-1.13.34-2.38.51-3.74.51-.8,0-1.55-.08-2.23-.24s-1.2-.34-1.55-.56c-.26.26-.48.54-.66.85s-.27.66-.27,1.06c0,.24.06.49.18.73.12.24.3.46.53.65.23.19.51.35.84.47.33.12.69.19,1.1.2l5.48.2c1.23.03,2.34.19,3.33.47.99.28,1.84.68,2.56,1.19.71.52,1.26,1.14,1.65,1.88.39.74.58,1.57.58,2.51,0,1.08-.24,2.09-.73,3.05s-1.22,1.78-2.19,2.49c-.98.71-2.19,1.26-3.65,1.67s-3.14.61-5.07.61-3.47-.15-4.81-.44c-1.34-.29-2.44-.71-3.3-1.24-.86-.53-1.49-1.16-1.9-1.9-.41-.74-.61-1.54-.61-2.42,0-.53.07-1.02.2-1.48.14-.46.34-.89.61-1.31.27-.42.61-.82,1.02-1.22.41-.39.89-.79,1.45-1.18-.74-.42-1.31-.97-1.69-1.64-.39-.67-.58-1.38-.58-2.14,0-.51.07-1,.2-1.44s.31-.88.53-1.28c.22-.41.47-.8.76-1.18.29-.38.59-.75.91-1.11-.56-.56-1.03-1.24-1.4-2.03s-.56-1.79-.56-2.99c0-1.29.23-2.44.69-3.44.46-1.01,1.1-1.86,1.92-2.55.82-.69,1.79-1.21,2.92-1.57,1.13-.36,2.36-.53,3.69-.53.68,0,1.34.03,1.97.1.63.07,1.2.19,1.72.35h8v4.05h-3.64ZM62.66,37.56c0,.89.45,1.55,1.35,1.98s2.17.64,3.81.64c1.05,0,1.93-.1,2.65-.3.72-.2,1.31-.45,1.76-.77.45-.32.78-.69.98-1.11.2-.42.3-.86.3-1.32,0-.41-.09-.75-.28-1.03-.19-.28-.45-.52-.8-.7-.34-.19-.74-.33-1.2-.43-.46-.1-.97-.16-1.53-.19l-4.89-.09c-.44.3-.8.59-1.08.86-.28.27-.5.54-.66.81-.16.26-.27.53-.32.81-.05.27-.08.56-.08.86ZM63.59,19.04c0,1.23.36,2.2,1.08,2.92.72.72,1.72,1.08,3.01,1.08.68,0,1.28-.11,1.78-.34.51-.23.93-.53,1.26-.91.33-.38.58-.82.75-1.32.17-.5.25-1.02.25-1.57,0-1.29-.36-2.29-1.08-3.01-.72-.72-1.72-1.08-3.01-1.08-.68,0-1.28.11-1.78.34-.51.23-.93.53-1.26.92-.33.39-.58.84-.75,1.35-.17.52-.25,1.05-.25,1.61Z"/>
    </clipPath>
    <linearGradient id="_무제_그라디언트_959" data-name="무제 그라디언트 959" x1=".5" y1="22.74" x2="258.16" y2="22.74" gradientUnits="userSpaceOnUse">
      <stop offset="0" stop-color="#b7ff71"/>
      <stop offset=".51" stop-color="#39f"/>
      <stop offset=".56" stop-color="#3b94fc"/>
      <stop offset=".64" stop-color="#5388f6"/>
      <stop offset=".74" stop-color="#7a75ed"/>
      <stop offset=".85" stop-color="#b159df"/>
      <stop offset=".98" stop-color="#f537ce"/>
      <stop offset="1" stop-color="#f3c"/>
    </linearGradient>
  </defs>
  <g id="_레이어_1-2" data-name="레이어 1">
    <g>
      <g class="cls-3">
        <g>
          <rect class="cls-2" x=".5" y=".5" width="257.66" height="44.48"/>
          <path class="cls-1" d="M257.66,1v43.48H1V1h256.66M258.66,0H0v45.48h258.66V0h0Z"/>
        </g>
      </g>
      <path class="cls-4" d="M75.72,15.45c.42.53.72,1.09.9,1.67.17.58.26,1.18.26,1.78,0,1.29-.22,2.42-.67,3.41s-1.08,1.81-1.89,2.48c-.81.67-1.78,1.17-2.91,1.51-1.13.34-2.38.51-3.74.51-.8,0-1.55-.08-2.23-.24s-1.2-.34-1.55-.56c-.26.26-.48.54-.66.85s-.27.66-.27,1.06c0,.24.06.49.18.73.12.24.3.46.53.65.23.19.51.35.84.47.33.12.69.19,1.1.2l5.48.2c1.23.03,2.34.19,3.33.47.99.28,1.84.68,2.56,1.19.71.52,1.26,1.14,1.65,1.88.39.74.58,1.57.58,2.51,0,1.08-.24,2.09-.73,3.05s-1.22,1.78-2.19,2.49c-.98.71-2.19,1.26-3.65,1.67s-3.14.61-5.07.61-3.47-.15-4.81-.44c-1.34-.29-2.44-.71-3.3-1.24-.86-.53-1.49-1.16-1.9-1.9-.41-.74-.61-1.54-.61-2.42,0-.53.07-1.02.2-1.48.14-.46.34-.89.61-1.31.27-.42.61-.82,1.02-1.22.41-.39.89-.79,1.45-1.18-.74-.42-1.31-.97-1.69-1.64-.39-.67-.58-1.38-.58-2.14,0-.51.07-1,.2-1.44s.31-.88.53-1.28c.22-.41.47-.8.76-1.18.29-.38.59-.75.91-1.11-.56-.56-1.03-1.24-1.4-2.03s-.56-1.79-.56-2.99c0-1.29.23-2.44.69-3.44.46-1.01,1.1-1.86,1.92-2.55.82-.69,1.79-1.21,2.92-1.57,1.13-.36,2.36-.53,3.69-.53.68,0,1.34.03,1.97.1.63.07,1.2.19,1.72.35h8v4.05h-3.64ZM62.66,37.56c0,.89.45,1.55,1.35,1.98s2.17.64,3.81.64c1.05,0,1.93-.1,2.65-.3.72-.2,1.31-.45,1.76-.77.45-.32.78-.69.98-1.11.2-.42.3-.86.3-1.32,0-.41-.09-.75-.28-1.03-.19-.28-.45-.52-.8-.7-.34-.19-.74-.33-1.2-.43-.46-.1-.97-.16-1.53-.19l-4.89-.09c-.44.3-.8.59-1.08.86-.28.27-.5.54-.66.81-.16.26-.27.53-.32.81-.05.27-.08.56-.08.86ZM63.59,19.04c0,1.23.36,2.2,1.08,2.92.72.72,1.72,1.08,3.01,1.08.68,0,1.28-.11,1.78-.34.51-.23.93-.53,1.26-.91.33-.38.58-.82.75-1.32.17-.5.25-1.02.25-1.57,0-1.29-.36-2.29-1.08-3.01-.72-.72-1.72-1.08-3.01-1.08-.68,0-1.28.11-1.78.34-.51.23-.93.53-1.26.92-.33.39-.58.84-.75,1.35-.17.52-.25,1.05-.25,1.61Z"/>
    </g>
  </g>
</svg>