<?xml version="1.0" encoding="UTF-8"?>
<svg id="_레이어_2" data-name="레이어 2" xmlns="http://www.w3.org/2000/svg" xmlns:xlink="http://www.w3.org/1999/xlink" viewBox="0 0 87.02 41.06">
  <defs>
    <style>
      .cls-1 {
        fill: #231815;
      }

      .cls-1, .cls-2 {
        stroke-width: 0px;
      }

      .cls-3 {
        clip-path: url(#clippath);
      }

      .cls-4 {
        fill: none;
        stroke: #231815;
        stroke-miterlimit: 10;
      }

      .cls-2 {
        fill: url(#_새_그라디언트_견본_2);
      }
    </style>
    <clipPath id="clippath">
      <polygon class="cls-4" points="75.93 35.38 75.39 18.59 75.18 11.88 73.75 16.43 70.45 26.54 66.95 26.54 63.98 16.43 62.73 11.88 62.57 18.45 62.07 35.38 57.32 35.38 58.77 5.68 65.09 5.68 67.7 14.11 68.95 18.86 70.2 14.38 72.95 5.68 79.39 5.68 80.86 35.38 75.93 35.38"/>
    </clipPath>
    <linearGradient id="_새_그라디언트_견본_2" data-name="새 그라디언트 견본 2" x1="2.34" y1="21" x2="87.56" y2="20.03" gradientUnits="userSpaceOnUse">
      <stop offset="0" stop-color="#b7ff71"/>
      <stop offset=".51" stop-color="#39f"/>
      <stop offset="1" stop-color="#f3c"/>
    </linearGradient>
  </defs>
  <g id="_레이어_1-2" data-name="레이어 1">
    <g>
      <g class="cls-3">
        <g>
          <rect class="cls-2" x=".5" y=".5" width="86.02" height="40.06"/>
          <path class="cls-1" d="M86.02,1v39.06H1V1h85.02M87.02,0H0v41.06h87.02V0h0Z"/>
        </g>
      </g>
      <polygon class="cls-4" points="75.93 35.38 75.39 18.59 75.18 11.88 73.75 16.43 70.45 26.54 66.95 26.54 63.98 16.43 62.73 11.88 62.57 18.45 62.07 35.38 57.32 35.38 58.77 5.68 65.09 5.68 67.7 14.11 68.95 18.86 70.2 14.38 72.95 5.68 79.39 5.68 80.86 35.38 75.93 35.38"/>
    </g>
  </g>
</svg>