<?xml version="1.0" encoding="UTF-8"?>
<svg id="_레이어_2" data-name="레이어 2" xmlns="http://www.w3.org/2000/svg" xmlns:xlink="http://www.w3.org/1999/xlink" viewBox="0 0 258.66 45.48">
  <defs>
    <style>
      .cls-1 {
        fill: #231815;
      }

      .cls-1, .cls-2 {
        stroke-width: 0px;
      }

      .cls-3 {
        clip-path: url(#clippath);
      }

      .cls-4 {
        fill: none;
        stroke: #231815;
        stroke-miterlimit: 10;
      }

      .cls-2 {
        fill: url(#_무제_그라디언트_959);
      }
    </style>
    <clipPath id="clippath">
      <path class="cls-4" d="M104.79,22.76c0,1.82-.26,3.48-.77,4.99-.52,1.51-1.26,2.8-2.23,3.88-.97,1.08-2.16,1.91-3.57,2.5s-3.02.89-4.82.89-3.24-.25-4.59-.75-2.49-1.25-3.43-2.24c-.94-.99-1.66-2.23-2.16-3.73-.5-1.49-.75-3.23-.75-5.22,0-1.83.26-3.5.78-5,.52-1.5,1.27-2.78,2.25-3.84.98-1.06,2.17-1.88,3.58-2.47,1.41-.58,3-.88,4.77-.88s3.26.25,4.61.76c1.35.51,2.49,1.26,3.43,2.26.94,1,1.65,2.24,2.15,3.72.49,1.48.74,3.19.74,5.12ZM99.02,22.9c0-2.39-.45-4.19-1.35-5.4-.9-1.2-2.23-1.81-3.99-1.81-.97,0-1.8.19-2.48.57-.68.38-1.24.9-1.68,1.56s-.76,1.43-.97,2.31c-.2.88-.31,1.82-.31,2.82,0,2.41.48,4.22,1.45,5.44.97,1.22,2.3,1.83,3.98,1.83.92,0,1.73-.19,2.41-.56.68-.37,1.23-.89,1.66-1.55.42-.66.74-1.44.95-2.33.21-.89.32-1.86.32-2.89Z"/>
    </clipPath>
    <linearGradient id="_무제_그라디언트_959" data-name="무제 그라디언트 959" x1=".5" y1="22.74" x2="258.16" y2="22.74" gradientUnits="userSpaceOnUse">
      <stop offset="0" stop-color="#b7ff71"/>
      <stop offset=".51" stop-color="#39f"/>
      <stop offset=".56" stop-color="#3b94fc"/>
      <stop offset=".64" stop-color="#5388f6"/>
      <stop offset=".74" stop-color="#7a75ed"/>
      <stop offset=".85" stop-color="#b159df"/>
      <stop offset=".98" stop-color="#f537ce"/>
      <stop offset="1" stop-color="#f3c"/>
    </linearGradient>
  </defs>
  <g id="_레이어_1-2" data-name="레이어 1">
    <g>
      <g class="cls-3">
        <g>
          <rect class="cls-2" x=".5" y=".5" width="257.66" height="44.48"/>
          <path class="cls-1" d="M257.66,1v43.48H1V1h256.66M258.66,0H0v45.48h258.66V0h0Z"/>
        </g>
      </g>
      <path class="cls-4" d="M104.79,22.76c0,1.82-.26,3.48-.77,4.99-.52,1.51-1.26,2.8-2.23,3.88-.97,1.08-2.16,1.91-3.57,2.5s-3.02.89-4.82.89-3.24-.25-4.59-.75-2.49-1.25-3.43-2.24c-.94-.99-1.66-2.23-2.16-3.73-.5-1.49-.75-3.23-.75-5.22,0-1.83.26-3.5.78-5,.52-1.5,1.27-2.78,2.25-3.84.98-1.06,2.17-1.88,3.58-2.47,1.41-.58,3-.88,4.77-.88s3.26.25,4.61.76c1.35.51,2.49,1.26,3.43,2.26.94,1,1.65,2.24,2.15,3.72.49,1.48.74,3.19.74,5.12ZM99.02,22.9c0-2.39-.45-4.19-1.35-5.4-.9-1.2-2.23-1.81-3.99-1.81-.97,0-1.8.19-2.48.57-.68.38-1.24.9-1.68,1.56s-.76,1.43-.97,2.31c-.2.88-.31,1.82-.31,2.82,0,2.41.48,4.22,1.45,5.44.97,1.22,2.3,1.83,3.98,1.83.92,0,1.73-.19,2.41-.56.68-.37,1.23-.89,1.66-1.55.42-.66.74-1.44.95-2.33.21-.89.32-1.86.32-2.89Z"/>
    </g>
  </g>
</svg>