<?xml version="1.0" encoding="UTF-8"?>
<svg id="_레이어_2" data-name="레이어 2" xmlns="http://www.w3.org/2000/svg" xmlns:xlink="http://www.w3.org/1999/xlink" viewBox="0 0 258.66 45.48">
  <defs>
    <style>
      .cls-1 {
        fill: #231815;
      }

      .cls-1, .cls-2 {
        stroke-width: 0px;
      }

      .cls-3 {
        clip-path: url(#clippath);
      }

      .cls-4 {
        fill: none;
        stroke: #231815;
        stroke-miterlimit: 10;
      }

      .cls-2 {
        fill: url(#_무제_그라디언트_959);
      }
    </style>
    <clipPath id="clippath">
      <path class="cls-4" d="M179.82,34.26c-1,.23-2.01.41-3.02.55-1.02.14-1.98.2-2.89.2-1.51,0-2.82-.16-3.92-.48-1.1-.32-2.01-.8-2.73-1.45-.72-.65-1.25-1.48-1.59-2.49-.34-1.01-.51-2.21-.51-3.6v-11.27h-6.2v-4.32h6.2v-5.91l5.68-1.48v7.39h8.98v4.32h-8.98v10.86c0,1.32.3,2.31.91,2.99.61.67,1.62,1.01,3.05,1.01.91,0,1.79-.08,2.66-.23.86-.15,1.65-.33,2.36-.52v4.43Z"/>
    </clipPath>
    <linearGradient id="_무제_그라디언트_959" data-name="무제 그라디언트 959" x1=".5" y1="22.74" x2="258.16" y2="22.74" gradientUnits="userSpaceOnUse">
      <stop offset="0" stop-color="#b7ff71"/>
      <stop offset=".51" stop-color="#39f"/>
      <stop offset=".56" stop-color="#3b94fc"/>
      <stop offset=".64" stop-color="#5388f6"/>
      <stop offset=".74" stop-color="#7a75ed"/>
      <stop offset=".85" stop-color="#b159df"/>
      <stop offset=".98" stop-color="#f537ce"/>
      <stop offset="1" stop-color="#f3c"/>
    </linearGradient>
  </defs>
  <g id="_레이어_1-2" data-name="레이어 1">
    <g>
      <g class="cls-3">
        <g>
          <rect class="cls-2" x=".5" y=".5" width="257.66" height="44.48"/>
          <path class="cls-1" d="M257.66,1v43.48H1V1h256.66M258.66,0H0v45.48h258.66V0h0Z"/>
        </g>
      </g>
      <path class="cls-4" d="M179.82,34.26c-1,.23-2.01.41-3.02.55-1.02.14-1.98.2-2.89.2-1.51,0-2.82-.16-3.92-.48-1.1-.32-2.01-.8-2.73-1.45-.72-.65-1.25-1.48-1.59-2.49-.34-1.01-.51-2.21-.51-3.6v-11.27h-6.2v-4.32h6.2v-5.91l5.68-1.48v7.39h8.98v4.32h-8.98v10.86c0,1.32.3,2.31.91,2.99.61.67,1.62,1.01,3.05,1.01.91,0,1.79-.08,2.66-.23.86-.15,1.65-.33,2.36-.52v4.43Z"/>
    </g>
  </g>
</svg>