<?xml version="1.0" encoding="UTF-8"?>
<svg id="_레이어_2" data-name="레이어 2" xmlns="http://www.w3.org/2000/svg" xmlns:xlink="http://www.w3.org/1999/xlink" viewBox="0 0 87.02 41.06">
  <defs>
    <style>
      .cls-1 {
        fill: #231815;
      }

      .cls-1, .cls-2 {
        stroke-width: 0px;
      }

      .cls-3 {
        clip-path: url(#clippath);
      }

      .cls-4 {
        fill: none;
        stroke: #231815;
        stroke-miterlimit: 10;
      }

      .cls-2 {
        fill: url(#_새_그라디언트_견본_2);
      }
    </style>
    <clipPath id="clippath">
      <polygon class="cls-4" points="53.89 35.38 47.32 35.38 44.39 26.22 43.32 22.5 42.29 26.32 39.41 35.38 33.11 35.38 31.45 5.68 36.39 5.68 37.09 24.72 37.27 29.93 38.61 25.29 41.89 14.72 45.41 14.72 48.86 25.93 49.98 29.88 50.07 25.25 50.82 5.68 55.57 5.68 53.89 35.38"/>
    </clipPath>
    <linearGradient id="_새_그라디언트_견본_2" data-name="새 그라디언트 견본 2" x1="2.34" y1="21" x2="87.56" y2="20.03" gradientUnits="userSpaceOnUse">
      <stop offset="0" stop-color="#b7ff71"/>
      <stop offset=".51" stop-color="#39f"/>
      <stop offset="1" stop-color="#f3c"/>
    </linearGradient>
  </defs>
  <g id="_레이어_1-2" data-name="레이어 1">
    <g>
      <g class="cls-3">
        <g>
          <rect class="cls-2" x=".5" y=".5" width="86.02" height="40.06"/>
          <path class="cls-1" d="M86.02,1v39.06H1V1h85.02M87.02,0H0v41.06h87.02V0h0Z"/>
        </g>
      </g>
      <polygon class="cls-4" points="53.89 35.38 47.32 35.38 44.39 26.22 43.32 22.5 42.29 26.32 39.41 35.38 33.11 35.38 31.45 5.68 36.39 5.68 37.09 24.72 37.27 29.93 38.61 25.29 41.89 14.72 45.41 14.72 48.86 25.93 49.98 29.88 50.07 25.25 50.82 5.68 55.57 5.68 53.89 35.38"/>
    </g>
  </g>
</svg>